<svg xmlns="http://www.w3.org/2000/svg" width="1920" height="1080" viewBox="0 0 1920 1080" role="img" aria-label="Hardscape &amp; Pavers">
  <defs>
    <linearGradient id="g" x1="0" y1="0" x2="0" y2="1">
      <stop offset="0" stop-color="#183b21"/>
      <stop offset="1" stop-color="#526f16"/>
    </linearGradient>
    <linearGradient id="ground" x1="0" y1="0" x2="0" y2="1">
      <stop offset="0" stop-color="#000" stop-opacity="0.18"/>
      <stop offset="1" stop-color="#000" stop-opacity="0.05"/>
    </linearGradient>
  </defs>
  <rect width="1920" height="1080" fill="url(#g)"/>
  <!-- rolling hills -->
  <path d="M0 777.6 Q 480 648 960 756 T 1920 734.4000000000001 V 1080 H 0 Z" fill="#000" opacity="0.10"/>
  <path d="M0 885.5999999999999 Q 576 777.6 1152 885.5999999999999 T 1920 864 V 1080 H 0 Z" fill="url(#ground)"/>
  <!-- sun/moon accent -->
  <circle cx="1574.3999999999999" cy="259.2" r="75.60000000000001" fill="#f5f1e7" opacity="0.10"/>
  <!-- logo-echo: lavender flower spikes -->
  <g opacity="0.5">
    <rect x="230.39999999999998" y="669.6" width="23.04" height="172.8" fill="#88628d" opacity="0.5"/>
    <ellipse cx="241.92000000000002" cy="648" rx="34.559999999999995" ry="54" fill="#88628d"/>
    <rect x="307.2" y="712.8000000000001" width="23.04" height="129.6" fill="#88628d" opacity="0.5"/>
    <ellipse cx="318.72" cy="691.2" rx="28.799999999999997" ry="43.2" fill="#88628d"/>
  </g>
  <!-- logo-echo: cream flower cluster -->
  <g opacity="0.6">
    <circle cx="1689.6" cy="756" r="15.120000000000001" fill="#f5f1e7"/>
    <circle cx="1728" cy="734.4000000000001" r="12.96" fill="#f5f1e7"/>
    <circle cx="1660.8" cy="739.8000000000001" r="11.879999999999999" fill="#f5f1e7"/>
  </g>
  <!-- label -->
  <text x="50%" y="47%" text-anchor="middle" font-family="Georgia, serif" font-size="77" fill="#ffffff" opacity="0.96" font-weight="600">Hardscape &amp; Pavers</text>
  <text x="50%" y="47%" dy="73.14999999999999" text-anchor="middle" font-family="Arial, sans-serif" font-size="39" fill="#ffffff" opacity="0.7" letter-spacing="2">SUNNYVALE, CA</text>
  <text x="50%" y="94%" text-anchor="middle" font-family="Arial, sans-serif" font-size="33.15" fill="#ffffff" opacity="0.55" letter-spacing="3">HERRERA LANDSCAPE • PLACEHOLDER</text>
</svg>