<svg xmlns="http://www.w3.org/2000/svg" width="1200" height="900" viewBox="0 0 1200 900" role="img" aria-label="Fence Installation">
  <defs>
    <linearGradient id="g" x1="0" y1="0" x2="0" y2="1">
      <stop offset="0" stop-color="#4c321e"/>
      <stop offset="1" stop-color="#75451f"/>
    </linearGradient>
    <linearGradient id="ground" x1="0" y1="0" x2="0" y2="1">
      <stop offset="0" stop-color="#000" stop-opacity="0.18"/>
      <stop offset="1" stop-color="#000" stop-opacity="0.05"/>
    </linearGradient>
  </defs>
  <rect width="1200" height="900" fill="url(#g)"/>
  <!-- rolling hills -->
  <path d="M0 648 Q 300 540 600 630 T 1200 612 V 900 H 0 Z" fill="#000" opacity="0.10"/>
  <path d="M0 738 Q 360 648 720 738 T 1200 720 V 900 H 0 Z" fill="url(#ground)"/>
  <!-- sun/moon accent -->
  <circle cx="983.9999999999999" cy="216" r="63.00000000000001" fill="#f5f1e7" opacity="0.10"/>
  <!-- logo-echo: lavender flower spikes -->
  <g opacity="0.5">
    <rect x="144" y="558" width="14.4" height="144" fill="#88628d" opacity="0.5"/>
    <ellipse cx="151.2" cy="540" rx="21.599999999999998" ry="45" fill="#88628d"/>
    <rect x="192" y="594" width="14.4" height="108" fill="#88628d" opacity="0.5"/>
    <ellipse cx="199.20000000000002" cy="576" rx="18" ry="36" fill="#88628d"/>
  </g>
  <!-- logo-echo: cream flower cluster -->
  <g opacity="0.6">
    <circle cx="1056" cy="630" r="12.6" fill="#f5f1e7"/>
    <circle cx="1080" cy="612" r="10.8" fill="#f5f1e7"/>
    <circle cx="1038" cy="616.5" r="9.899999999999999" fill="#f5f1e7"/>
  </g>
  <!-- label -->
  <text x="50%" y="47%" text-anchor="middle" font-family="Georgia, serif" font-size="64" fill="#ffffff" opacity="0.96" font-weight="600">Fence Installation</text>
  <text x="50%" y="47%" dy="60.8" text-anchor="middle" font-family="Arial, sans-serif" font-size="32" fill="#ffffff" opacity="0.7" letter-spacing="2">SERVICE</text>
  <text x="50%" y="94%" text-anchor="middle" font-family="Arial, sans-serif" font-size="27.2" fill="#ffffff" opacity="0.55" letter-spacing="3">HERRERA LANDSCAPE • PLACEHOLDER</text>
</svg>